<?xml version="1.0" encoding="utf-8"?>
<!-- Generator: Adobe Illustrator 19.0.0, SVG Export Plug-In . SVG Version: 6.00 Build 0)  -->
<svg version="1.1" id="Layer_1" xmlns="http://www.w3.org/2000/svg" xmlns:xlink="http://www.w3.org/1999/xlink" x="0px" y="0px"
	 viewBox="0 0 612 792" style="enable-background:new 0 0 612 792;" xml:space="preserve">
<style type="text/css">
	.st0{fill:#383838;}
	.st1{display:none;fill:#FFFFFF;}
	.st2{fill:#FFFFFF;}
	.st3{fill:#EE5B96;}
	.st4{fill:#E1BE2C;}
	.st5{display:none;}
	.st6{display:inline;fill:#31ACDD;}
	.st7{display:none;fill:#31ACDD;}
</style>
<circle class="st0" cx="162.6" cy="281.6" r="115.2"/>
<path class="st1" d="M128.8,393.5c0,0,0.5-0.2,1.4-0.6c2.9-1.2,9.4-4.3,12.2-8.1c3.7-5,10.3-17,10.3-17l12.7,12.8l13.3-24.2l32,18.5
	v-20.8l19,13l8.3-30.3l24.7,2.3c0,0-32.2,72.6-133.5,54.1L128.8,393.5z"/>
<g>
	
		<image style="overflow:visible;opacity:0.75;" width="148" height="107" xlink:href="80D4AD1B.png"  transform="matrix(1 0 0 1 109 262)">
	</image>
	<g>
		<path class="st2" d="M232.6,270.5c0,0,2,1.8,2,5.8s-18.3,61.1-52.9,68.4s-56.5-6.4-64.5-17.4c0,0-0.8-3.9,3.3-2
			S190.9,360.4,232.6,270.5z"/>
	</g>
</g>
<g>
	
		<image style="overflow:visible;opacity:0.75;" width="40" height="41" xlink:href="80D4AD19.png"  transform="matrix(1 0 0 1 94 297)">
	</image>
	<g>
		<circle class="st3" cx="107" cy="310.3" r="5"/>
	</g>
</g>
<g>
	
		<image style="overflow:visible;opacity:0.75;" width="52" height="52" xlink:href="80D4AD1F.png"  transform="matrix(1 0 0 1 82 255)">
	</image>
	<g>
		<circle class="st4" cx="101.3" cy="274" r="10.7"/>
	</g>
</g>
<g class="st5">
	<path class="st6" d="M415,491c0,0,6.8-47.8,7.8-60c0.9-12.3,2.4-57.2,3.4-60.6c2.5-1.4,20.9,29.8,21.3,29.8s-2-26.3,1.1-79.8
		c0,0,1-14.4,1.4-16.9s4.1-5.1,6.4-3.6s2.8,1.1,3.6,3.8s15.5,46.8,21.6,56.1c0,0,19,39.6,67.6,77c0,0-4.5,7.9-5.8,9.6
		c-1.3,1.7-1.3,1.7-2.7,2.7c-31.3-25-72.5-74.3-78.3-84.8c-7.1-2.8-0.3,63.7-0.3,63.7s-3.3,0.8-3.4,8.6s-13.1-29.7-23.7-35.1
		c0,0-2.4,36.9-2.4,40.1c-0.9,12-5.8,51.7-5.8,51.7S417.6,493,415,491z"/>
	<path class="st6" d="M518.6,368.5c0,0,2,1.8,2,5.8s-18.3,61.1-52.9,68.4s-56.5-6.4-64.5-17.4c0,0-0.8-3.9,3.3-2
		S476.9,458.4,518.6,368.5z"/>
	<path class="st6" d="M414.8,491.5c0,0,0.5-0.2,1.4-0.6c2.9-1.2,9.4-4.3,12.2-8.1c3.7-5,10.3-17,10.3-17l12.7,12.8l13.3-24.2
		l32,18.5v-20.8l19,13l8.3-30.3l24.7,2.3c0,0-32.2,72.6-133.5,54.1L414.8,491.5z"/>
</g>
<g class="st5">
	<path class="st6" d="M416,494.4c0,0,6.8-47.8,7.8-60c0.9-12.3,2.4-57.2,3.4-60.6c2.5-1.4,20.9,29.8,21.3,29.8s-2-26.3,1.1-79.8
		c0,0,1-14.4,1.4-16.9s4.1-5.1,6.4-3.6s2.8,1.1,3.6,3.8s15.5,46.8,21.6,56.1c0,0,19,39.6,67.6,77c0,0-4.5,7.9-5.8,9.6
		c-1.3,1.7-1.3,1.7-2.7,2.7c-31.3-25-72.5-74.3-78.3-84.8c-7.1-2.8-0.3,63.7-0.3,63.7s-3.3,0.8-3.4,8.6
		c-0.1,7.8-13.1-29.7-23.7-35.1c0,0-2.4,36.9-2.4,40.1c-0.9,12-5.8,51.7-5.8,51.7S418.6,496.4,416,494.4z"/>
	<path class="st6" d="M519.6,371.9c0,0,2,1.8,2,5.8s-18.3,61.1-52.9,68.4s-56.5-6.4-64.5-17.4c0,0-0.8-3.9,3.3-2
		S477.9,461.7,519.6,371.9z"/>
	<path class="st6" d="M415.8,494.8c0,0,0.5-0.2,1.4-0.6c2.9-1.2,9.4-4.3,12.2-8.1c3.7-5,10.3-17,10.3-17l12.7,12.8l13.3-24.2
		l32,18.5v-20.8l19,13l8.3-30.3l24.7,2.3c0,0-32.2,72.6-133.5,54.1L415.8,494.8z"/>
</g>
<circle class="st7" cx="394" cy="411.6" r="5"/>
<circle class="st7" cx="388.3" cy="375.3" r="10.7"/>
<path class="st2" d="M261.8,340.6l-23-1.6l-8.3,30.3l-19-13v20.8l-32-18.5l-13.3,24.2L153.5,370c0,0-6.7,12-10.3,17
	c-1.9,2.6-5.8,4.8-9,6.4C188,410.8,244.5,376.5,261.8,340.6z"/>
<path class="st2" d="M262.2,403"/>
<path class="st2" d="M140.8,394.9c0.9-7.7,4.7-39.9,5.5-50.4c0-3.2,2.4-40.1,2.4-40.1c10.6,5.4,23.6,42.9,23.7,35.1
	c0.1-7.8,3.4-8.6,3.4-8.6s-6.8-66.4,0.3-63.7c5.8,10.4,46.5,59.4,77.7,84.6c4.1-5.5,6.9-9.7,8.9-13.3c-48-37.2-67.5-75.8-67.5-75.8
	c-6.1-9.4-20.8-53.5-21.6-56.1s-1.4-2.3-3.6-3.8s-6,1.1-6.4,3.6s-1.4,16.9-1.4,16.9c-3.1,53.5-0.8,79.8-1.1,79.8
	S142.5,272,140,273.4c-1,3.5-2.5,48.4-3.4,60.6c-0.8,10.7-6.2,48.8-7.5,58c0.1,0,0.1,0,0.2,0.1C132.4,393,134.2,393.9,140.8,394.9z"
	/>
</svg>
